<svg class="slime" width="130" viewBox="0 0 200 120" fill="none" xmlns="http://www.w3.org/2000/svg">
    <ellipse id="Shadow" cx="101.5" cy="100" rx="86.5" ry="20" fill="black" fill-opacity="0.6"/>
    <g id="Slime">
    <path id="Body" d="M186 76.5C186 108.256 147.72 108 100.5 108C53.2797 108 15 108.256 15 76.5C15 44.7436 53.2797 12 100.5 12C147.72 12 186 44.7436 186 76.5Z" fill="#FFB595"/>
    <path id="Ellipse 1" d="M176.729 87C176.729 104.949 136.351 97.5 100.729 97.5C65.1062 97.5 22.2286 104.949 22.2286 87C22.2286 69.0507 65.1062 31.5 100.729 31.5C136.351 31.5 176.729 69.0507 176.729 87Z" fill="#FBA78D"/>
    <path id="Shine" d="M122.729 20C127.317 20.9893 144.297 27.2679 152.729 35" stroke="white" stroke-width="6" stroke-linecap="round"/>
    <g id="Open-Eyes">
    <path d="M63.3581 59.5186C61.3056 69.1465 56.4596 76.2716 52.5343 75.4329C48.6089 74.5942 47.0907 66.1094 49.1432 56.4814C51.1957 46.8535 56.0417 39.7284 59.967 40.5671C63.8924 41.4058 65.4106 49.8906 63.3581 59.5186Z" fill="black"/>
    <path d="M151.954 56.1935C154.396 65.73 153.224 74.2696 149.335 75.2673C145.447 76.265 140.316 69.343 137.875 59.8065C135.433 50.27 136.605 41.7304 140.494 40.7327C144.382 39.735 149.513 46.657 151.954 56.1935Z" fill="black"/>
    </g>
    <path id="Closed-Mouth" d="M74.2286 87.5L95.7723 97.5M106.727 97.5L129.229 87.5" stroke="black" stroke-width="2" stroke-linecap="round"/>
    <path id="Open-Mouth" d="M127 81.9708C127 86.4052 115.583 90 101.5 90C87.4167 90 76 86.4052 76 81.9708C76 77.5365 87.4167 81.9708 101.5 81.9708C115.583 81.9708 127 77.5365 127 81.9708Z" fill="black"/>
    <path id="Closed-Eyes" d="M39 60C43.9476 48.7209 57.4629 32.9302 71.9436 60M128.056 59.9466C133.004 48.6675 146.519 32.8769 161 59.9466" stroke="black" stroke-width="4" stroke-linecap="round"/>
    <path class="happy" id="Happy" d="M185.193 36.5416C185.5 33 181 26.5 177.363 24.7365L168.244 34.307L170.854 38.242L173.464 42.177L185.193 36.5416Z" fill="#FFE03C"/>
    <path class="happy" id="Happy_2" d="M177.5 18C176.5 13 166.5 6 161 6L153.5 23.5L159 27.5L164.5 31.5L177.5 18Z" fill="#FFE03C"/>
    <path class="happy" id="Happy_3" d="M44.7866 6.27608C46.7607 4.4576 52.6259 3.99808 55.2868 5.24659L53.6211 14.8712L50.1211 15.2143L46.621 15.5575L44.7866 6.27608Z" fill="#FFE03C"/>
    <path class="happy" id="Happy_4" d="M21 16.2353C21.9583 11.1373 31.5417 4 36.8125 4L44 21.8431L38.7292 25.9216L33.4583 30L21 16.2353Z" fill="#FFE03C"/>
    <path class="happy" id="Happy_5" d="M13.2061 37.3313C11.574 33.7688 13.587 25.4191 16.5228 22.2895L29.1309 28.9519L28.0253 33.9658L26.9197 38.9797L13.2061 37.3313Z" fill="#FFE03C"/>
    </g>
</svg>   